<?xml version="1.0" encoding="utf-8"?>
<!-- Generator: Adobe Illustrator 18.1.1, SVG Export Plug-In . SVG Version: 6.00 Build 0)  -->
<svg version="1.1" id="Layer_1" xmlns="http://www.w3.org/2000/svg" xmlns:xlink="http://www.w3.org/1999/xlink" x="0px" y="0px"
	 viewBox="0 0 196.4 192.7" enable-background="new 0 0 196.4 192.7" xml:space="preserve">
<g>
	<path fill="#FFFFFF" d="M49.4,12.7C67.9,2.3,89.8-2,110.9,0.8c21.1,2.6,41.3,12.2,56.4,27.1c15.4,14.8,25.6,34.9,28.3,56.1
		c2.4,18.1-0.4,37-8.3,53.5c-14,30.1-44.3,51.8-77.3,55.1c-2.3,0.4-5.6-0.7-5.6-3.5c-0.2-19.5,0-39.1-0.1-58.6
		c15-1.7,29.3-9.9,37.9-22.4c6.9-9.8,10.2-22,9-33.9c-0.9-15-7.9-30.2-20.6-38.7c-7.5-5.1-17.4-6.9-26.1-3.8
		c-3.4,1.2-6.5,3.6-8.2,6.9c-3.3,6-3.1,13-3.3,19.6c0,20.8,0,41.7,0,62.5c-13.5-1.6-25.8-10.2-32.1-22.2c-5.4-10-6.5-22.3-2.6-33
		c2.3-5.6,5.1-11.2,9.5-15.5c5.2-5.2,11.8-8.6,18.7-11.1c0.7-3.4,1.4-6.9,1.9-10.3c-12.6,2-24,9.2-31.7,19.3
		C46.3,61.4,43,80.3,48.8,96.4c6.5,18.7,24.6,32.2,44.2,34.1c0.1,19.2,0,38.5,0,57.7c0.4,3.3-3.2,4.9-6,4.5
		c-14.6-1.5-28.9-6.5-41.4-14.2C25.8,166.1,10.5,146.5,4,124.1C-2.7,101.8-0.9,77,9.1,56C17.6,37.8,32,22.5,49.4,12.7L49.4,12.7z"/>
	<path fill="#FFFFFF" d="M109.2,41.4c7-3.2,15.2,0,20.2,5.3c13.8,14.3,15.5,38.2,5,54.8c-6.6,10.4-17.8,17.3-29.9,19.2
		c-0.6-21.8-0.1-43.7-0.2-65.6C104.7,50.4,104.2,43.9,109.2,41.4L109.2,41.4z"/>
</g>
</svg>
