<?xml version="1.0" encoding="utf-8"?>
<!-- Generator: Adobe Illustrator 16.2.1, SVG Export Plug-In . SVG Version: 6.00 Build 0)  -->
<!DOCTYPE svg PUBLIC "-//W3C//DTD SVG 1.1//EN" "http://www.w3.org/Graphics/SVG/1.1/DTD/svg11.dtd">
<svg version="1.1" id="Layer_1" xmlns="http://www.w3.org/2000/svg" xmlns:xlink="http://www.w3.org/1999/xlink" x="0px" y="0px"
	 width="20px" height="20px" viewBox="0 0 20 20" enable-background="new 0 0 20 20" xml:space="preserve">
<path fill="#FFFFFF" d="M10.016,0c-5.523,0-10,4.477-10,10c0,5.522,4.477,10,10,10c5.522,0,10-4.478,10-10
	C20.016,4.477,15.538,0,10.016,0z M10.016,18.625c-4.764,0-8.625-3.862-8.625-8.625c0-4.764,3.861-8.625,8.625-8.625
	c4.763,0,8.625,3.861,8.625,8.625C18.641,14.763,14.778,18.625,10.016,18.625z"/>
<polygon fill="#FFFFFF" points="15.281,9.078 10.75,9.078 10.75,4.547 9.375,4.547 9.375,9.078 4.844,9.078 4.844,10.453 
	9.375,10.453 9.375,14.984 10.75,14.984 10.75,10.453 15.281,10.453 "/>
</svg>
