<?xml version="1.0" encoding="utf-8"?>
<!-- Generator: Adobe Illustrator 15.0.0, SVG Export Plug-In  -->
<!DOCTYPE svg PUBLIC "-//W3C//DTD SVG 1.1//EN" "http://www.w3.org/Graphics/SVG/1.1/DTD/svg11.dtd" [
	<!ENTITY ns_flows "http://ns.adobe.com/Flows/1.0/">
]>
<svg version="1.1"
	 xmlns="http://www.w3.org/2000/svg" xmlns:xlink="http://www.w3.org/1999/xlink" xmlns:a="http://ns.adobe.com/AdobeSVGViewerExtensions/3.0/"
	 x="0px" y="0px" width="90px" height="90px" viewBox="-0.151 -0.65 90 90"
	 overflow="visible" enable-background="new -0.151 -0.65 90 90" xml:space="preserve">
<defs>
</defs>
<path fill="#FFFFFF" d="M44.489,65.809c-11.568,0-20.98-9.411-20.98-20.978s9.412-20.978,20.98-20.978
	c11.567,0,20.977,9.411,20.977,20.978S56.056,65.809,44.489,65.809z M44.489,31.854c-7.158,0-12.98,5.823-12.98,12.978
	c0,7.155,5.822,12.978,12.98,12.978c7.155,0,12.977-5.822,12.977-12.978C57.466,37.677,51.644,31.854,44.489,31.854z"/>
<path fill="#FFFFFF" d="M44.489,17.113c-2.209,0-4-1.791-4-4V4c0-2.212,1.791-4,4-4s4,1.788,4,4v9.113
	C48.489,15.322,46.698,17.113,44.489,17.113z"/>
<path fill="#FFFFFF" d="M44.489,88.978c-2.209,0-4-1.789-4-4v-9.115c0-2.211,1.791-4,4-4s4,1.789,4,4v9.115
	C48.489,87.188,46.698,88.978,44.489,88.978z"/>
<path fill="#FFFFFF" d="M66.673,26.304c-1.023,0-2.047-0.391-2.828-1.171c-1.562-1.562-1.562-4.095,0-5.659l6.449-6.445
	c1.564-1.562,4.096-1.561,5.658,0c1.561,1.562,1.561,4.096-0.002,5.657l-6.449,6.447C68.72,25.913,67.696,26.304,66.673,26.304z"/>
<path fill="#FFFFFF" d="M15.857,77.119c-1.024,0-2.048-0.392-2.829-1.173c-1.562-1.563-1.562-4.097,0.002-5.658l6.447-6.443
	c1.562-1.562,4.095-1.56,5.656,0.003c1.562,1.562,1.562,4.095-0.002,5.656l-6.447,6.442C17.904,76.728,16.881,77.119,15.857,77.119z
	"/>
<path fill="#FFFFFF" d="M75.86,48.486c-2.209,0-4-1.789-4-3.997c0-2.211,1.791-4,4-4.003h9.117l0,0c2.209,0,4,1.788,4,3.998
	s-1.789,4-3.998,4.002h-9.117H75.86z"/>
<path fill="#FFFFFF" d="M13.114,48.486H4c-2.209,0-4-1.789-4-4c0-2.208,1.791-4,4-4h9.114c2.209,0,4,1.792,4,4
	C17.114,46.697,15.323,48.486,13.114,48.486z"/>
<path fill="#FFFFFF" d="M73.122,77.119c-1.021,0-2.045-0.392-2.826-1.171l-6.451-6.444c-1.562-1.562-1.564-4.093-0.002-5.655
	c1.561-1.563,4.092-1.565,5.656-0.004l6.451,6.442c1.562,1.562,1.564,4.095,0.002,5.658C75.171,76.726,74.147,77.119,73.122,77.119z
	"/>
<path fill="#FFFFFF" d="M22.305,26.301c-1.024,0-2.046-0.39-2.828-1.17l-6.448-6.443c-1.562-1.561-1.563-4.093-0.003-5.655
	c1.562-1.563,4.094-1.563,5.657-0.004l6.448,6.444c1.562,1.562,1.564,4.094,0.004,5.655C24.354,25.911,23.329,26.301,22.305,26.301z
	"/>
</svg>
