<?xml version="1.0" encoding="utf-8"?>
<!-- Generator: Adobe Illustrator 15.0.0, SVG Export Plug-In  -->
<!DOCTYPE svg PUBLIC "-//W3C//DTD SVG 1.1//EN" "http://www.w3.org/Graphics/SVG/1.1/DTD/svg11.dtd" [
	<!ENTITY ns_flows "http://ns.adobe.com/Flows/1.0/">
]>
<svg version="1.1"
	 xmlns="http://www.w3.org/2000/svg" xmlns:xlink="http://www.w3.org/1999/xlink" xmlns:a="http://ns.adobe.com/AdobeSVGViewerExtensions/3.0/"
	 x="0px" y="0px" width="91px" height="89px" viewBox="0 0 91 89" overflow="visible" enable-background="new 0 0 91 89"
	 xml:space="preserve">
<defs>
</defs>
<path display="none" fill="#FFFFFF" d="M44.633,65.809c-11.568,0-20.98-9.411-20.98-20.978s9.412-20.978,20.98-20.978
	c11.567,0,20.977,9.411,20.977,20.978S56.2,65.809,44.633,65.809z M44.633,31.854c-7.158,0-12.98,5.823-12.98,12.978
	c0,7.155,5.822,12.978,12.98,12.978c7.155,0,12.977-5.822,12.977-12.978C57.61,37.677,51.788,31.854,44.633,31.854z"/>
<path display="none" fill="#FFFFFF" d="M44.633,17.113c-2.209,0-4-1.791-4-4V4c0-2.212,1.791-4,4-4s4,1.788,4,4v9.113
	C48.634,15.322,46.842,17.113,44.633,17.113z"/>
<path display="none" fill="#FFFFFF" d="M44.633,88.978c-2.209,0-4-1.789-4-4v-9.115c0-2.211,1.791-4,4-4s4,1.789,4,4v9.115
	C48.634,87.188,46.842,88.978,44.633,88.978z"/>
<path display="none" fill="#FFFFFF" d="M66.817,26.304c-1.023,0-2.047-0.391-2.828-1.171c-1.562-1.562-1.562-4.095,0-5.659
	l6.449-6.445c1.564-1.562,4.096-1.561,5.658,0c1.561,1.562,1.561,4.096-0.002,5.657l-6.449,6.447
	C68.864,25.913,67.841,26.304,66.817,26.304z"/>
<path display="none" fill="#FFFFFF" d="M16.002,77.119c-1.024,0-2.048-0.392-2.829-1.173c-1.562-1.563-1.562-4.097,0.002-5.658
	l6.447-6.443c1.562-1.562,4.095-1.56,5.656,0.003c1.562,1.562,1.562,4.095-0.002,5.656l-6.447,6.442
	C18.049,76.728,17.025,77.119,16.002,77.119z"/>
<path display="none" fill="#FFFFFF" d="M76.005,48.486c-2.209,0-4-1.789-4-3.997c0-2.211,1.791-4,4-4.003h9.117l0,0
	c2.209,0,4,1.788,4,3.998s-1.789,4-3.998,4.002h-9.117H76.005z"/>
<path display="none" fill="#FFFFFF" d="M13.259,48.486H4.145c-2.209,0-4-1.789-4-4c0-2.208,1.791-4,4-4h9.114c2.209,0,4,1.792,4,4
	C17.259,46.697,15.468,48.486,13.259,48.486z"/>
<path display="none" fill="#FFFFFF" d="M73.267,77.119c-1.021,0-2.045-0.392-2.826-1.171l-6.451-6.444
	c-1.562-1.562-1.564-4.093-0.002-5.655c1.561-1.563,4.092-1.565,5.656-0.004l6.451,6.442c1.562,1.562,1.564,4.095,0.002,5.658
	C75.315,76.726,74.292,77.119,73.267,77.119z"/>
<path display="none" fill="#FFFFFF" d="M22.45,26.301c-1.024,0-2.046-0.39-2.828-1.17l-6.448-6.443
	c-1.562-1.561-1.563-4.093-0.003-5.655c1.562-1.563,4.094-1.563,5.657-0.004l6.448,6.444c1.562,1.562,1.564,4.094,0.004,5.655
	C24.499,25.911,23.473,26.301,22.45,26.301z"/>
<path fill="#FFFFFF" d="M73.211,33.081c-3.293-10.557-13.156-17.96-24.437-17.96c-8.387,0-16.198,4.12-20.962,10.906
	c-0.74-0.064-1.479-0.097-2.211-0.097C11.484,25.93,0,37.417,0,51.531c0,14.116,11.484,25.6,25.601,25.6h43.6
	c12.251,0,22.217-9.965,22.217-22.218C91.418,44.069,83.623,34.974,73.211,33.081z M69.201,69.532h-43.6
	c-9.927,0-18.002-8.074-18.002-18.001s8.075-18.002,18.002-18.002c1.12,0,2.268,0.108,3.412,0.327
	c1.604,0.307,3.23-0.453,4.027-1.883c3.183-5.709,9.211-9.254,15.734-9.254c7.144,0,13.466,4.226,16.346,10.484
	c-4.598,0.894-8.844,3.245-12.04,6.758c-1.396,1.532-1.283,3.906,0.25,5.299c0.718,0.656,1.623,0.978,2.524,0.978
	c1.02,0,2.036-0.412,2.775-1.228c2.726-2.993,6.607-4.709,10.649-4.709c0.083,0,0.16-0.02,0.24-0.026
	c0.15,0.027,0.299,0.055,0.453,0.064c7.765,0.405,13.847,6.809,13.847,14.573C83.819,62.975,77.262,69.532,69.201,69.532z"/>
<path fill="#FFFFFF" d="M73.211,33.081c-3.293-10.557-13.156-17.96-24.437-17.96c-8.387,0-16.198,4.12-20.962,10.906
	c-0.74-0.064-1.479-0.097-2.211-0.097C11.484,25.93,0,37.417,0,51.531c0,14.116,11.484,25.6,25.601,25.6h43.6
	c12.251,0,22.217-9.965,22.217-22.218C91.418,44.069,83.623,34.974,73.211,33.081z M69.201,69.532h-43.6
	c-9.927,0-18.002-8.074-18.002-18.001s8.075-18.002,18.002-18.002c1.12,0,2.268,0.108,3.412,0.327
	c1.604,0.307,3.23-0.453,4.027-1.883c3.183-5.709,9.211-9.254,15.734-9.254c7.144,0,13.466,4.226,16.346,10.484
	c-4.598,0.894-8.844,3.245-12.04,6.758c-1.396,1.532-1.283,3.906,0.25,5.299c0.718,0.656,1.623,0.978,2.524,0.978
	c1.02,0,2.036-0.412,2.775-1.228c2.726-2.993,6.607-4.709,10.649-4.709c0.083,0,0.16-0.02,0.24-0.026
	c0.15,0.027,0.299,0.055,0.453,0.064c7.765,0.405,13.847,6.809,13.847,14.573C83.819,62.975,77.262,69.532,69.201,69.532z"/>
<path fill="#FFFFFF" d="M73.211,33.081c-3.293-10.557-13.156-17.96-24.437-17.96c-8.387,0-16.198,4.12-20.962,10.906
	c-0.74-0.064-1.479-0.097-2.211-0.097C11.484,25.93,0,37.417,0,51.531c0,14.116,11.484,25.6,25.601,25.6h43.6
	c12.251,0,22.217-9.965,22.217-22.218C91.418,44.069,83.623,34.974,73.211,33.081z M69.201,69.532h-43.6
	c-9.927,0-18.002-8.074-18.002-18.001s8.075-18.002,18.002-18.002c1.12,0,2.268,0.108,3.412,0.327
	c1.604,0.307,3.23-0.453,4.027-1.883c3.183-5.709,9.211-9.254,15.734-9.254c7.144,0,13.466,4.226,16.346,10.484
	c-4.598,0.894-8.844,3.245-12.04,6.758c-1.396,1.532-1.283,3.906,0.25,5.299c0.718,0.656,1.623,0.978,2.524,0.978
	c1.02,0,2.036-0.412,2.775-1.228c2.726-2.993,6.607-4.709,10.649-4.709c0.083,0,0.16-0.02,0.24-0.026
	c0.15,0.027,0.299,0.055,0.453,0.064c7.765,0.405,13.847,6.809,13.847,14.573C83.819,62.975,77.262,69.532,69.201,69.532z"/>
</svg>
