<?xml version="1.0" encoding="utf-8"?>
<!-- Generator: Adobe Illustrator 15.0.0, SVG Export Plug-In  -->
<!DOCTYPE svg PUBLIC "-//W3C//DTD SVG 1.1//EN" "http://www.w3.org/Graphics/SVG/1.1/DTD/svg11.dtd" [
	<!ENTITY ns_flows "http://ns.adobe.com/Flows/1.0/">
]>
<svg version="1.1"
	 xmlns="http://www.w3.org/2000/svg" xmlns:xlink="http://www.w3.org/1999/xlink" xmlns:a="http://ns.adobe.com/AdobeSVGViewerExtensions/3.0/"
	 x="0px" y="0px" width="91px" height="89px" viewBox="0 0 91 89" overflow="visible" enable-background="new 0 0 91 89"
	 xml:space="preserve">
<defs>
</defs>
<path display="none" fill="#FFFFFF" d="M44.633,65.809c-11.568,0-20.98-9.411-20.98-20.978s9.412-20.978,20.98-20.978
	c11.567,0,20.977,9.411,20.977,20.978S56.2,65.809,44.633,65.809z M44.633,31.854c-7.158,0-12.98,5.823-12.98,12.978
	c0,7.155,5.822,12.978,12.98,12.978c7.155,0,12.977-5.822,12.977-12.978C57.61,37.677,51.788,31.854,44.633,31.854z"/>
<path display="none" fill="#FFFFFF" d="M44.633,17.113c-2.209,0-4-1.791-4-4V4c0-2.212,1.791-4,4-4s4,1.788,4,4v9.113
	C48.634,15.322,46.842,17.113,44.633,17.113z"/>
<path display="none" fill="#FFFFFF" d="M44.633,88.978c-2.209,0-4-1.789-4-4v-9.115c0-2.211,1.791-4,4-4s4,1.789,4,4v9.115
	C48.634,87.188,46.842,88.978,44.633,88.978z"/>
<path display="none" fill="#FFFFFF" d="M66.817,26.304c-1.023,0-2.047-0.391-2.828-1.171c-1.562-1.562-1.562-4.095,0-5.659
	l6.449-6.445c1.564-1.562,4.096-1.561,5.658,0c1.561,1.562,1.561,4.096-0.002,5.657l-6.449,6.447
	C68.864,25.913,67.841,26.304,66.817,26.304z"/>
<path display="none" fill="#FFFFFF" d="M16.002,77.119c-1.024,0-2.048-0.392-2.829-1.173c-1.562-1.563-1.562-4.097,0.002-5.658
	l6.447-6.443c1.562-1.562,4.095-1.56,5.656,0.003c1.562,1.562,1.562,4.095-0.002,5.656l-6.447,6.442
	C18.049,76.728,17.025,77.119,16.002,77.119z"/>
<path display="none" fill="#FFFFFF" d="M76.005,48.486c-2.209,0-4-1.789-4-3.997c0-2.211,1.791-4,4-4.003h9.117l0,0
	c2.209,0,4,1.788,4,3.998s-1.789,4-3.998,4.002h-9.117H76.005z"/>
<path display="none" fill="#FFFFFF" d="M13.259,48.486H4.145c-2.209,0-4-1.789-4-4c0-2.208,1.791-4,4-4h9.114c2.209,0,4,1.792,4,4
	C17.259,46.697,15.468,48.486,13.259,48.486z"/>
<path display="none" fill="#FFFFFF" d="M73.267,77.119c-1.021,0-2.045-0.392-2.826-1.171l-6.451-6.444
	c-1.562-1.562-1.564-4.093-0.002-5.655c1.561-1.563,4.092-1.565,5.656-0.004l6.451,6.442c1.562,1.562,1.564,4.095,0.002,5.658
	C75.315,76.726,74.292,77.119,73.267,77.119z"/>
<path display="none" fill="#FFFFFF" d="M22.45,26.301c-1.024,0-2.046-0.39-2.828-1.17l-6.448-6.443
	c-1.562-1.561-1.563-4.093-0.003-5.655c1.562-1.563,4.094-1.563,5.657-0.004l6.448,6.444c1.562,1.562,1.564,4.094,0.004,5.655
	C24.499,25.911,23.473,26.301,22.45,26.301z"/>
<path display="none" fill="#FFFFFF" d="M73.211,33.081c-3.293-10.557-13.156-17.96-24.437-17.96c-8.387,0-16.198,4.12-20.962,10.906
	c-0.74-0.064-1.479-0.097-2.211-0.097C11.484,25.93,0,37.417,0,51.531c0,14.116,11.484,25.6,25.601,25.6h43.6
	c12.251,0,22.217-9.965,22.217-22.218C91.418,44.069,83.623,34.974,73.211,33.081z M69.201,69.532h-43.6
	c-9.927,0-18.002-8.074-18.002-18.001s8.075-18.002,18.002-18.002c1.12,0,2.268,0.108,3.412,0.327
	c1.604,0.307,3.23-0.453,4.027-1.883c3.183-5.709,9.211-9.254,15.734-9.254c7.144,0,13.466,4.226,16.346,10.484
	c-4.598,0.894-8.844,3.245-12.04,6.758c-1.396,1.532-1.283,3.906,0.25,5.299c0.718,0.656,1.623,0.978,2.524,0.978
	c1.02,0,2.036-0.412,2.775-1.228c2.726-2.993,6.607-4.709,10.649-4.709c0.083,0,0.16-0.02,0.24-0.026
	c0.15,0.027,0.299,0.055,0.453,0.064c7.765,0.405,13.847,6.809,13.847,14.573C83.819,62.975,77.262,69.532,69.201,69.532z"/>
<path display="none" fill="#FFFFFF" d="M73.211,33.081c-3.293-10.557-13.156-17.96-24.437-17.96c-8.387,0-16.198,4.12-20.962,10.906
	c-0.74-0.064-1.479-0.097-2.211-0.097C11.484,25.93,0,37.417,0,51.531c0,14.116,11.484,25.6,25.601,25.6h43.6
	c12.251,0,22.217-9.965,22.217-22.218C91.418,44.069,83.623,34.974,73.211,33.081z M69.201,69.532h-43.6
	c-9.927,0-18.002-8.074-18.002-18.001s8.075-18.002,18.002-18.002c1.12,0,2.268,0.108,3.412,0.327
	c1.604,0.307,3.23-0.453,4.027-1.883c3.183-5.709,9.211-9.254,15.734-9.254c7.144,0,13.466,4.226,16.346,10.484
	c-4.598,0.894-8.844,3.245-12.04,6.758c-1.396,1.532-1.283,3.906,0.25,5.299c0.718,0.656,1.623,0.978,2.524,0.978
	c1.02,0,2.036-0.412,2.775-1.228c2.726-2.993,6.607-4.709,10.649-4.709c0.083,0,0.16-0.02,0.24-0.026
	c0.15,0.027,0.299,0.055,0.453,0.064c7.765,0.405,13.847,6.809,13.847,14.573C83.819,62.975,77.262,69.532,69.201,69.532z"/>
<path display="none" fill="#FFFFFF" d="M73.211,33.081c-3.293-10.557-13.156-17.96-24.437-17.96c-8.387,0-16.198,4.12-20.962,10.906
	c-0.74-0.064-1.479-0.097-2.211-0.097C11.484,25.93,0,37.417,0,51.531c0,14.116,11.484,25.6,25.601,25.6h43.6
	c12.251,0,22.217-9.965,22.217-22.218C91.418,44.069,83.623,34.974,73.211,33.081z M69.201,69.532h-43.6
	c-9.927,0-18.002-8.074-18.002-18.001s8.075-18.002,18.002-18.002c1.12,0,2.268,0.108,3.412,0.327
	c1.604,0.307,3.23-0.453,4.027-1.883c3.183-5.709,9.211-9.254,15.734-9.254c7.144,0,13.466,4.226,16.346,10.484
	c-4.598,0.894-8.844,3.245-12.04,6.758c-1.396,1.532-1.283,3.906,0.25,5.299c0.718,0.656,1.623,0.978,2.524,0.978
	c1.02,0,2.036-0.412,2.775-1.228c2.726-2.993,6.607-4.709,10.649-4.709c0.083,0,0.16-0.02,0.24-0.026
	c0.15,0.027,0.299,0.055,0.453,0.064c7.765,0.405,13.847,6.809,13.847,14.573C83.819,62.975,77.262,69.532,69.201,69.532z"/>
<path display="none" fill="#FFFFFF" d="M38.656,74.692c-0.422-0.422-1.105-0.422-1.528,0l-5.396,5.396
	c-0.421,0.422-0.421,1.105,0,1.527c0.211,0.212,0.488,0.316,0.764,0.316s0.553-0.104,0.764-0.316l5.396-5.396
	C39.078,75.798,39.078,75.114,38.656,74.692z"/>
<path display="none" fill="#FFFFFF" d="M47.3,74.692c-0.422-0.422-1.105-0.422-1.528,0l-5.396,5.396
	c-0.422,0.422-0.422,1.105,0,1.527c0.21,0.212,0.487,0.316,0.764,0.316s0.553-0.104,0.764-0.316l5.396-5.396
	C47.722,75.798,47.722,75.114,47.3,74.692z"/>
<path display="none" fill="#FFFFFF" d="M55.943,74.692c-0.422-0.422-1.105-0.422-1.527,0l-5.396,5.396
	c-0.423,0.422-0.423,1.105,0,1.527c0.211,0.212,0.487,0.316,0.764,0.316s0.553-0.104,0.764-0.316l5.396-5.396
	C56.366,75.798,56.366,75.114,55.943,74.692z"/>
<path display="none" fill="#FFFFFF" d="M63.06,74.692l-5.397,5.396c-0.422,0.422-0.422,1.105,0,1.527
	c0.211,0.212,0.489,0.316,0.764,0.316c0.279,0,0.553-0.104,0.764-0.316l5.399-5.396c0.422-0.423,0.422-1.106,0-1.528
	S63.481,74.271,63.06,74.692z"/>
<path display="none" fill="#FFFFFF" d="M54.416,83.337l-2.161,2.161c-0.423,0.422-0.423,1.105,0,1.527
	c0.21,0.211,0.486,0.316,0.765,0.316c0.275,0,0.552-0.105,0.763-0.316l2.161-2.161c0.423-0.423,0.423-1.105,0-1.527
	C55.521,82.914,54.838,82.914,54.416,83.337z"/>
<path display="none" fill="#FFFFFF" d="M45.771,83.337l-2.161,2.161c-0.422,0.422-0.422,1.105,0,1.527
	c0.211,0.211,0.488,0.316,0.764,0.316c0.276,0,0.553-0.105,0.764-0.316l2.161-2.161c0.422-0.423,0.422-1.105,0-1.527
	C46.878,82.914,46.194,82.914,45.771,83.337z"/>
<path display="none" fill="#FFFFFF" d="M37.128,83.337l-2.161,2.161c-0.422,0.422-0.422,1.105,0,1.527
	c0.21,0.211,0.488,0.316,0.764,0.316c0.276,0,0.553-0.105,0.763-0.316l2.161-2.161c0.422-0.423,0.422-1.105,0-1.527
	C38.233,82.914,37.55,82.914,37.128,83.337z"/>
<path display="none" fill="#FFFFFF" d="M28.484,83.337l-2.161,2.161c-0.422,0.422-0.422,1.105,0,1.527
	c0.211,0.211,0.488,0.316,0.764,0.316c0.276,0,0.552-0.105,0.764-0.316l2.161-2.161c0.422-0.423,0.422-1.105,0-1.527
	C29.59,82.914,28.906,82.914,28.484,83.337z"/>
<path display="none" fill="#FFFFFF" d="M71.855,31.821c-3.028-9.708-12.099-16.516-22.471-16.516
	c-7.713,0-14.896,3.789-19.277,10.029c-0.681-0.059-1.36-0.089-2.033-0.089c-12.981,0-23.542,10.562-23.542,23.541
	c0,12.98,10.561,23.542,23.542,23.542h40.093c11.265,0,20.43-9.165,20.43-20.432C88.598,41.925,81.43,33.562,71.855,31.821z
	 M68.168,65.34H28.075c-9.129,0-16.554-7.425-16.554-16.554c0-9.128,7.425-16.554,16.554-16.554c1.03,0,2.085,0.1,3.138,0.301
	c1.475,0.283,2.97-0.417,3.704-1.731c2.927-5.25,8.47-8.51,14.469-8.51c6.568,0,12.383,3.886,15.031,9.641
	c-4.229,0.822-8.134,2.984-11.072,6.214c-1.284,1.408-1.18,3.592,0.23,4.873c0.658,0.604,1.492,0.899,2.32,0.899
	c0.938,0,1.872-0.378,2.553-1.129c2.506-2.751,6.076-4.33,9.792-4.33c0.077,0,0.148-0.018,0.221-0.023
	c0.139,0.024,0.275,0.05,0.418,0.058c7.141,0.373,12.732,6.261,12.732,13.401C81.61,59.31,75.58,65.34,68.168,65.34z"/>
<path display="none" fill="#FFFFFF" d="M71.855,31.821c-3.028-9.708-12.099-16.516-22.471-16.516
	c-7.713,0-14.896,3.789-19.277,10.029c-0.681-0.059-1.36-0.089-2.033-0.089c-12.981,0-23.542,10.562-23.542,23.541
	c0,12.98,10.561,23.542,23.542,23.542h40.093c11.265,0,20.43-9.165,20.43-20.432C88.598,41.925,81.43,33.562,71.855,31.821z
	 M68.168,65.34H28.075c-9.129,0-16.554-7.425-16.554-16.554c0-9.128,7.425-16.554,16.554-16.554c1.03,0,2.085,0.1,3.138,0.301
	c1.475,0.283,2.97-0.417,3.704-1.731c2.927-5.25,8.47-8.51,14.469-8.51c6.568,0,12.383,3.886,15.031,9.641
	c-4.229,0.822-8.134,2.984-11.072,6.214c-1.284,1.408-1.18,3.592,0.23,4.873c0.658,0.604,1.492,0.899,2.32,0.899
	c0.938,0,1.872-0.378,2.553-1.129c2.506-2.751,6.076-4.33,9.792-4.33c0.077,0,0.148-0.018,0.221-0.023
	c0.139,0.024,0.275,0.05,0.418,0.058c7.141,0.373,12.732,6.261,12.732,13.401C81.61,59.31,75.58,65.34,68.168,65.34z"/>
<path display="none" fill="#FFFFFF" d="M71.855,31.821c-3.028-9.708-12.099-16.516-22.471-16.516
	c-7.713,0-14.896,3.789-19.277,10.029c-0.681-0.059-1.36-0.089-2.033-0.089c-12.981,0-23.542,10.562-23.542,23.541
	c0,12.98,10.561,23.542,23.542,23.542h40.093c11.265,0,20.43-9.165,20.43-20.432C88.598,41.925,81.43,33.562,71.855,31.821z
	 M68.168,65.34H28.075c-9.129,0-16.554-7.425-16.554-16.554c0-9.128,7.425-16.554,16.554-16.554c1.03,0,2.085,0.1,3.138,0.301
	c1.475,0.283,2.97-0.417,3.704-1.731c2.927-5.25,8.47-8.51,14.469-8.51c6.568,0,12.383,3.886,15.031,9.641
	c-4.229,0.822-8.134,2.984-11.072,6.214c-1.284,1.408-1.18,3.592,0.23,4.873c0.658,0.604,1.492,0.899,2.32,0.899
	c0.938,0,1.872-0.378,2.553-1.129c2.506-2.751,6.076-4.33,9.792-4.33c0.077,0,0.148-0.018,0.221-0.023
	c0.139,0.024,0.275,0.05,0.418,0.058c7.141,0.373,12.732,6.261,12.732,13.401C81.61,59.31,75.58,65.34,68.168,65.34z"/>
<path fill="#FFFFFF" d="M38.775,88.698c0.192,0.186,0.44,0.279,0.688,0.279c0.259,0,0.517-0.101,0.711-0.303l6.262-6.471
	c0.276-0.285,0.354-0.706,0.2-1.073c-0.154-0.364-0.514-0.603-0.91-0.603h-2.382l3.963-3.682c0.401-0.373,0.423-0.998,0.052-1.399
	c-0.371-0.399-1-0.422-1.397-0.05l-5.809,5.396c-0.297,0.276-0.396,0.709-0.247,1.085c0.148,0.379,0.514,0.628,0.92,0.628h2.565
	l-4.639,4.795C38.373,87.69,38.382,88.316,38.775,88.698z"/>
<path fill="#FFFFFF" d="M54.838,81.058l4.938-4.941c0.387-0.387,0.387-1.012,0-1.398c-0.386-0.386-1.013-0.386-1.398,0l-4.938,4.941
	c-0.387,0.387-0.387,1.012,0,1.398c0.192,0.192,0.445,0.289,0.698,0.289S54.644,81.25,54.838,81.058z"/>
<path fill="#FFFFFF" d="M49.888,86.006l1.978-1.978c0.387-0.387,0.387-1.013,0-1.398c-0.387-0.387-1.013-0.387-1.398,0l-1.979,1.978
	c-0.386,0.387-0.386,1.012,0,1.398c0.193,0.194,0.446,0.29,0.699,0.29C49.441,86.296,49.694,86.2,49.888,86.006z"/>
<path fill="#FFFFFF" d="M33.08,81.058l4.939-4.941c0.386-0.387,0.386-1.012,0-1.398c-0.387-0.386-1.012-0.386-1.399,0l-4.939,4.941
	c-0.386,0.387-0.386,1.012,0,1.398c0.193,0.192,0.446,0.289,0.699,0.289C32.634,81.347,32.887,81.25,33.08,81.058z"/>
<path fill="#FFFFFF" d="M28.129,86.006l1.978-1.978c0.386-0.387,0.386-1.013,0-1.398c-0.386-0.387-1.012-0.387-1.398,0l-1.978,1.978
	c-0.386,0.387-0.386,1.012,0,1.398c0.193,0.194,0.447,0.29,0.7,0.29S27.937,86.2,28.129,86.006z"/>
<path fill="#FFFFFF" d="M71.855,31.821c-3.028-9.708-12.099-16.516-22.471-16.516c-7.713,0-14.896,3.789-19.277,10.029
	c-0.681-0.059-1.36-0.089-2.033-0.089c-12.981,0-23.542,10.562-23.542,23.541c0,12.98,10.561,23.542,23.542,23.542h40.093
	c11.265,0,20.43-9.165,20.43-20.432C88.598,41.925,81.43,33.562,71.855,31.821z M68.168,65.34H28.075
	c-9.129,0-16.554-7.425-16.554-16.554c0-9.128,7.425-16.554,16.554-16.554c1.03,0,2.085,0.1,3.138,0.301
	c1.475,0.283,2.97-0.417,3.704-1.731c2.927-5.25,8.47-8.51,14.469-8.51c6.568,0,12.383,3.886,15.031,9.641
	c-4.229,0.822-8.134,2.984-11.072,6.214c-1.284,1.408-1.18,3.592,0.23,4.873c0.658,0.604,1.492,0.899,2.32,0.899
	c0.938,0,1.872-0.378,2.553-1.129c2.506-2.751,6.076-4.33,9.792-4.33c0.077,0,0.148-0.018,0.221-0.023
	c0.139,0.024,0.275,0.05,0.418,0.058c7.141,0.373,12.732,6.261,12.732,13.401C81.61,59.31,75.58,65.34,68.168,65.34z"/>
<path fill="#FFFFFF" d="M71.855,31.821c-3.028-9.708-12.099-16.516-22.471-16.516c-7.713,0-14.896,3.789-19.277,10.029
	c-0.681-0.059-1.36-0.089-2.033-0.089c-12.981,0-23.542,10.562-23.542,23.541c0,12.98,10.561,23.542,23.542,23.542h40.093
	c11.265,0,20.43-9.165,20.43-20.432C88.598,41.925,81.43,33.562,71.855,31.821z M68.168,65.34H28.075
	c-9.129,0-16.554-7.425-16.554-16.554c0-9.128,7.425-16.554,16.554-16.554c1.03,0,2.085,0.1,3.138,0.301
	c1.475,0.283,2.97-0.417,3.704-1.731c2.927-5.25,8.47-8.51,14.469-8.51c6.568,0,12.383,3.886,15.031,9.641
	c-4.229,0.822-8.134,2.984-11.072,6.214c-1.284,1.408-1.18,3.592,0.23,4.873c0.658,0.604,1.492,0.899,2.32,0.899
	c0.938,0,1.872-0.378,2.553-1.129c2.506-2.751,6.076-4.33,9.792-4.33c0.077,0,0.148-0.018,0.221-0.023
	c0.139,0.024,0.275,0.05,0.418,0.058c7.141,0.373,12.732,6.261,12.732,13.401C81.61,59.31,75.58,65.34,68.168,65.34z"/>
<path fill="#FFFFFF" d="M71.855,31.821c-3.028-9.708-12.099-16.516-22.471-16.516c-7.713,0-14.896,3.789-19.277,10.029
	c-0.681-0.059-1.36-0.089-2.033-0.089c-12.981,0-23.542,10.562-23.542,23.541c0,12.98,10.561,23.542,23.542,23.542h40.093
	c11.265,0,20.43-9.165,20.43-20.432C88.598,41.925,81.43,33.562,71.855,31.821z M68.168,65.34H28.075
	c-9.129,0-16.554-7.425-16.554-16.554c0-9.128,7.425-16.554,16.554-16.554c1.03,0,2.085,0.1,3.138,0.301
	c1.475,0.283,2.97-0.417,3.704-1.731c2.927-5.25,8.47-8.51,14.469-8.51c6.568,0,12.383,3.886,15.031,9.641
	c-4.229,0.822-8.134,2.984-11.072,6.214c-1.284,1.408-1.18,3.592,0.23,4.873c0.658,0.604,1.492,0.899,2.32,0.899
	c0.938,0,1.872-0.378,2.553-1.129c2.506-2.751,6.076-4.33,9.792-4.33c0.077,0,0.148-0.018,0.221-0.023
	c0.139,0.024,0.275,0.05,0.418,0.058c7.141,0.373,12.732,6.261,12.732,13.401C81.61,59.31,75.58,65.34,68.168,65.34z"/>
<circle display="none" fill="#FFFFFF" cx="40.106" cy="80.908" r="1.214"/>
<circle display="none" fill="#FFFFFF" cx="52.245" cy="80.908" r="1.214"/>
<circle display="none" fill="#FFFFFF" cx="47.39" cy="76.052" r="1.214"/>
<circle display="none" fill="#FFFFFF" cx="59.529" cy="76.052" r="1.214"/>
<circle display="none" fill="#FFFFFF" cx="44.962" cy="85.764" r="1.214"/>
<circle display="none" fill="#FFFFFF" cx="35.25" cy="76.052" r="1.214"/>
<path display="none" fill="#FFFFFF" d="M71.855,31.821c-3.028-9.708-12.099-16.516-22.471-16.516
	c-7.713,0-14.896,3.789-19.277,10.029c-0.681-0.059-1.36-0.089-2.033-0.089c-12.981,0-23.542,10.562-23.542,23.541
	c0,12.98,10.561,23.542,23.542,23.542h40.093c11.265,0,20.43-9.165,20.43-20.432C88.598,41.925,81.43,33.562,71.855,31.821z
	 M68.168,65.34H28.075c-9.129,0-16.554-7.425-16.554-16.554c0-9.128,7.425-16.554,16.554-16.554c1.03,0,2.085,0.1,3.138,0.301
	c1.475,0.283,2.97-0.417,3.704-1.731c2.927-5.25,8.47-8.51,14.469-8.51c6.568,0,12.383,3.886,15.031,9.641
	c-4.229,0.822-8.134,2.984-11.072,6.214c-1.284,1.408-1.18,3.592,0.23,4.873c0.658,0.604,1.492,0.899,2.32,0.899
	c0.938,0,1.872-0.378,2.553-1.129c2.506-2.751,6.076-4.33,9.792-4.33c0.077,0,0.148-0.018,0.221-0.023
	c0.139,0.024,0.275,0.05,0.418,0.058c7.141,0.373,12.732,6.261,12.732,13.401C81.61,59.31,75.58,65.34,68.168,65.34z"/>
<path display="none" fill="#FFFFFF" d="M71.855,31.821c-3.028-9.708-12.099-16.516-22.471-16.516
	c-7.713,0-14.896,3.789-19.277,10.029c-0.681-0.059-1.36-0.089-2.033-0.089c-12.981,0-23.542,10.562-23.542,23.541
	c0,12.98,10.561,23.542,23.542,23.542h40.093c11.265,0,20.43-9.165,20.43-20.432C88.598,41.925,81.43,33.562,71.855,31.821z
	 M68.168,65.34H28.075c-9.129,0-16.554-7.425-16.554-16.554c0-9.128,7.425-16.554,16.554-16.554c1.03,0,2.085,0.1,3.138,0.301
	c1.475,0.283,2.97-0.417,3.704-1.731c2.927-5.25,8.47-8.51,14.469-8.51c6.568,0,12.383,3.886,15.031,9.641
	c-4.229,0.822-8.134,2.984-11.072,6.214c-1.284,1.408-1.18,3.592,0.23,4.873c0.658,0.604,1.492,0.899,2.32,0.899
	c0.938,0,1.872-0.378,2.553-1.129c2.506-2.751,6.076-4.33,9.792-4.33c0.077,0,0.148-0.018,0.221-0.023
	c0.139,0.024,0.275,0.05,0.418,0.058c7.141,0.373,12.732,6.261,12.732,13.401C81.61,59.31,75.58,65.34,68.168,65.34z"/>
<path display="none" fill="#FFFFFF" d="M71.855,31.821c-3.028-9.708-12.099-16.516-22.471-16.516
	c-7.713,0-14.896,3.789-19.277,10.029c-0.681-0.059-1.36-0.089-2.033-0.089c-12.981,0-23.542,10.562-23.542,23.541
	c0,12.98,10.561,23.542,23.542,23.542h40.093c11.265,0,20.43-9.165,20.43-20.432C88.598,41.925,81.43,33.562,71.855,31.821z
	 M68.168,65.34H28.075c-9.129,0-16.554-7.425-16.554-16.554c0-9.128,7.425-16.554,16.554-16.554c1.03,0,2.085,0.1,3.138,0.301
	c1.475,0.283,2.97-0.417,3.704-1.731c2.927-5.25,8.47-8.51,14.469-8.51c6.568,0,12.383,3.886,15.031,9.641
	c-4.229,0.822-8.134,2.984-11.072,6.214c-1.284,1.408-1.18,3.592,0.23,4.873c0.658,0.604,1.492,0.899,2.32,0.899
	c0.938,0,1.872-0.378,2.553-1.129c2.506-2.751,6.076-4.33,9.792-4.33c0.077,0,0.148-0.018,0.221-0.023
	c0.139,0.024,0.275,0.05,0.418,0.058c7.141,0.373,12.732,6.261,12.732,13.401C81.61,59.31,75.58,65.34,68.168,65.34z"/>
<path display="none" fill="#FFFFFF" d="M37.888,77.339c-16.15,0-29.291-13.139-29.291-29.288c0-12.927,8.292-24.176,20.633-27.99
	c1.114-0.345,2.334-0.035,3.15,0.805c0.816,0.838,1.092,2.064,0.716,3.171c-0.845,2.485-1.273,5.071-1.273,7.691
	c0,13.152,10.702,23.855,23.856,23.855c1.925,0,3.847-0.233,5.714-0.694c1.136-0.279,2.333,0.103,3.099,0.987
	c0.765,0.887,0.969,2.126,0.527,3.211C60.505,70.175,49.854,77.339,37.888,77.339z M25.782,28.393
	c-6.725,4.116-10.96,11.458-10.96,19.658c0,12.718,10.348,23.064,23.066,23.064c7.448,0,14.249-3.525,18.528-9.316
	c-0.246,0.007-0.49,0.009-0.737,0.009c-16.587,0-30.081-13.495-30.081-30.079C25.598,30.609,25.659,29.498,25.782,28.393z"/>
<path display="none" fill="#FFFFFF" d="M64.919,35.204h-3.124V32.08c0-0.929-0.756-1.686-1.688-1.686s-1.687,0.756-1.686,1.687
	v3.123h-3.125c-0.932,0-1.685,0.756-1.685,1.688c0,0.931,0.753,1.685,1.685,1.685h3.125v3.125c-0.001,0.931,0.754,1.687,1.686,1.687
	s1.688-0.756,1.688-1.686v-3.126h3.124c0.932,0,1.686-0.754,1.686-1.685C66.604,35.96,65.851,35.204,64.919,35.204z"/>
<path display="none" fill="#FFFFFF" d="M87.929,26.778h-3.123l-0.001-3.123c0-0.934-0.756-1.687-1.686-1.687
	c-0.932,0-1.688,0.756-1.688,1.687l0.002,3.123h-3.125c-0.932,0-1.687,0.755-1.687,1.688c0,0.93,0.755,1.685,1.687,1.685h3.125
	l-0.002,3.125c0,0.932,0.756,1.687,1.688,1.687c0.93,0,1.686-0.755,1.686-1.685l0.001-3.127h3.123c0.932,0,1.687-0.754,1.687-1.685
	C89.615,27.533,88.86,26.778,87.929,26.778z"/>
<path display="none" fill="#FFFFFF" d="M11.711,12.848H8.586V9.725c0-0.931-0.755-1.688-1.687-1.688S5.212,8.794,5.214,9.725v3.123
	H2.09c-0.932,0-1.686,0.757-1.686,1.687c0,0.933,0.754,1.688,1.686,1.688h3.125v3.125c-0.002,0.931,0.753,1.686,1.685,1.686
	s1.687-0.755,1.687-1.686v-3.125h3.125c0.932,0,1.685-0.755,1.685-1.688C13.396,13.605,12.643,12.848,11.711,12.848z"/>
<path display="none" fill="#FFFFFF" d="M72.148,39.553c-3.021-9.684-12.067-16.474-22.414-16.474c-3.456,0-6.801,0.767-9.838,2.172
	c0.105-0.839,0.179-1.688,0.179-2.554c0-9.091-5.833-17.004-14.515-19.688c-1.249-0.385-2.614-0.04-3.527,0.901
	c-0.914,0.938-1.224,2.311-0.801,3.55c0.501,1.474,0.755,3.009,0.755,4.562c0,7.805-6.349,14.153-14.151,14.153
	c-1.137,0-2.277-0.139-3.392-0.411c-1.271-0.314-2.612,0.114-3.469,1.105c-0.856,0.992-1.084,2.379-0.589,3.591
	c1.987,4.88,5.67,8.667,10.207,10.826c-3.487,4.097-5.597,9.402-5.597,15.191c0,12.946,10.535,23.48,23.483,23.48h39.994
	c11.237,0,20.379-9.144,20.379-20.378C88.851,49.63,81.7,41.288,72.148,39.553z M28.941,12.864c2.606,2.504,4.164,6.012,4.164,9.833
	c0,4.113-1.839,7.799-4.729,10.3c-4.185,0.018-8.11,1.14-11.508,3.081c-2.384-0.46-4.574-1.535-6.366-3.1
	C20.621,31.696,28.532,23.229,28.941,12.864z M68.472,72.987H28.478c-9.105,0-16.513-7.406-16.513-16.51
	c0-9.105,7.408-16.515,16.513-16.515c1.036,0,2.086,0.103,3.124,0.3c1.476,0.286,2.968-0.411,3.701-1.725
	c2.918-5.237,8.448-8.489,14.431-8.489c6.552,0,12.353,3.876,14.993,9.616c-4.219,0.82-8.113,2.978-11.045,6.2
	c-1.278,1.404-1.176,3.583,0.231,4.86c0.658,0.602,1.487,0.897,2.314,0.897c0.936,0,1.868-0.38,2.547-1.126
	c2.498-2.747,6.058-4.322,9.768-4.322c0.076,0,0.148-0.017,0.223-0.021c0.136,0.023,0.272,0.049,0.414,0.055
	c7.121,0.371,12.7,6.243,12.7,13.371C81.88,66.973,75.864,72.987,68.472,72.987z"/>
<path display="none" fill="#FFFFFF" d="M35.6,13.695c1.768,0,3.201-1.433,3.201-3.201V3.201C38.801,1.434,37.368,0,35.6,0
	s-3.201,1.434-3.201,3.201v7.293C32.399,12.263,33.833,13.695,35.6,13.695z"/>
<path display="none" fill="#FFFFFF" d="M15.585,20.112c0.625,0.625,1.444,0.936,2.263,0.936s1.639-0.312,2.263-0.938
	c1.25-1.25,1.25-3.274,0-4.525l-5.161-5.158c-1.25-1.251-3.276-1.25-4.526,0c-1.25,1.25-1.25,3.276,0,4.526L15.585,20.112z"/>
<path display="none" fill="#FFFFFF" d="M13.697,35.6c0-1.767-1.432-3.201-3.2-3.201l-7.295-0.001h0C1.434,32.397,0,33.828,0,35.596
	c0,1.77,1.432,3.2,3.2,3.203l7.295,0.002h0.001C12.264,38.801,13.697,37.367,13.697,35.6z"/>
<path display="none" fill="#FFFFFF" d="M53.351,21.046c0.82,0,1.637-0.312,2.262-0.936l5.16-5.153
	c1.25-1.251,1.25-3.277,0.002-4.528c-1.25-1.251-3.277-1.251-4.525-0.002l-5.162,5.155c-1.25,1.249-1.25,3.276,0,4.527
	C51.71,20.735,52.53,21.046,53.351,21.046z"/>
<path display="none" fill="#FFFFFF" d="M74.226,42.785C71.45,33.892,63.142,27.656,53.64,27.656c-1.109,0-2.203,0.094-3.279,0.261
	c-2.842-5.249-8.384-8.829-14.76-8.829c-9.255,0-16.785,7.531-16.785,16.786c0,2.181,0.428,4.256,1.19,6.168
	c-4.562,3.957-7.454,9.789-7.454,16.288c0,11.891,9.674,21.565,21.566,21.565h36.732c10.32,0,18.715-8.397,18.715-18.716
	C89.563,52.04,82.997,44.38,74.226,42.785z M25.216,35.873c0-5.725,4.658-10.384,10.384-10.384c3.503,0,6.605,1.747,8.488,4.413
	c-3.204,1.587-6.009,3.953-8.107,6.943c-0.622-0.055-1.245-0.084-1.864-0.084c-3.035,0-5.923,0.635-8.544,1.771
	C25.344,37.683,25.216,36.793,25.216,35.873z M70.849,73.492H34.117c-8.362,0-15.165-6.803-15.165-15.163
	c0-8.362,6.803-15.167,15.165-15.167c0.952,0,1.916,0.094,2.87,0.275c1.356,0.263,2.726-0.378,3.399-1.584
	c2.68-4.81,7.76-7.797,13.254-7.797c6.018,0,11.344,3.561,13.77,8.832c-3.875,0.753-7.451,2.734-10.143,5.694
	c-1.174,1.29-1.082,3.29,0.211,4.465c0.605,0.552,1.367,0.823,2.127,0.823c0.859,0,1.715-0.349,2.338-1.034
	c2.295-2.522,5.564-3.969,8.971-3.969c0.07,0,0.137-0.016,0.205-0.021c0.125,0.022,0.25,0.046,0.379,0.051
	c6.541,0.342,11.666,5.734,11.666,12.28C83.163,67.969,77.638,73.492,70.849,73.492z"/>
</svg>
